<?xml version="1.0" standalone="no"?>
<!DOCTYPE svg PUBLIC "-//W3C//DTD SVG 20010904//EN"
 "http://www.w3.org/TR/2001/REC-SVG-20010904/DTD/svg10.dtd">
<svg version="1.0" xmlns="http://www.w3.org/2000/svg"
 width="1870.000000pt" height="1070.000000pt" viewBox="0 0 1870.000000 1070.000000"
 preserveAspectRatio="xMidYMid meet">

<g transform="translate(0.000000,1070.000000) scale(0.100000,-0.100000)"
fill="#000000" stroke="none">
<path d="M12075 9081 c-44 -10 -105 -29 -135 -42 -54 -24 -162 -89 -186 -113
-6 -7 -25 -24 -42 -38 -35 -29 -112 -129 -136 -175 -9 -18 -20 -33 -25 -33 -5
0 -40 36 -77 81 -73 85 -169 165 -244 200 -231 110 -623 83 -776 -53 -131
-116 -170 -169 -252 -343 -91 -194 -115 -452 -57 -620 30 -88 179 -357 240
-434 128 -158 216 -250 355 -365 58 -48 127 -106 154 -129 27 -23 79 -64 115
-92 36 -27 75 -58 86 -68 34 -31 473 -320 533 -351 l33 -17 145 118 c80 65
182 146 227 181 45 34 93 74 107 87 14 14 31 25 37 25 15 0 102 -96 158 -175
126 -176 307 -446 303 -450 -28 -24 -114 -63 -248 -113 -204 -76 -221 -81
-450 -132 -633 -140 -964 -271 -1269 -501 -550 -417 -848 -1122 -766 -1816 17
-148 30 -225 56 -323 124 -474 381 -889 734 -1187 743 -626 1748 -695 2470
-168 109 79 316 290 397 405 147 207 258 469 313 739 96 477 32 1009 -195
1621 -104 278 -120 331 -107 334 36 10 179 27 297 36 74 6 173 17 220 25 47 8
163 22 259 30 96 9 183 20 193 26 14 7 18 21 18 57 l0 48 -112 -4 c-62 -1
-129 -8 -148 -15 -20 -6 -106 -12 -200 -13 -91 -1 -241 -5 -334 -9 -143 -7
-168 -6 -164 6 3 9 21 15 49 17 24 1 118 9 209 17 91 8 230 15 310 14 80 0
190 5 245 12 55 6 110 11 121 11 19 0 21 4 14 27 -20 65 -19 64 -79 58 -277
-29 -855 -61 -937 -52 -209 23 -427 165 -501 325 -53 114 -67 183 -68 315 0
208 50 342 174 465 79 78 168 132 276 166 75 24 99 26 410 35 182 6 387 7 456
3 82 -4 133 -2 146 4 25 14 43 75 43 149 0 101 27 94 -396 101 -572 11 -560
11 -694 -31 -251 -80 -401 -179 -555 -367 l-57 -70 -62 79 c-162 209 -336 460
-336 483 0 2 35 40 78 84 80 82 98 103 146 169 16 22 32 42 35 45 3 3 21 28
40 55 19 28 58 82 86 120 79 108 146 227 169 302 8 26 25 78 39 114 13 37 28
84 32 105 4 22 10 53 14 69 13 64 3 268 -16 299 -4 6 -9 19 -10 30 -2 10 -9
33 -17 50 -7 17 -19 47 -26 66 -44 121 -85 187 -174 278 -187 194 -434 270
-691 213z m932 -753 c-3 -8 -6 -5 -6 6 -1 11 2 17 5 13 3 -3 4 -12 1 -19z
m-813 -181 c37 -79 44 -104 57 -192 9 -65 -5 -198 -21 -203 -6 -2 -8 -8 -5
-13 4 -5 -3 -19 -14 -31 -12 -12 -21 -28 -21 -35 0 -27 -62 -142 -100 -186
-22 -25 -40 -49 -39 -54 3 -19 -2 -25 -14 -14 -11 8 -13 6 -13 -12 1 -16 -6
-23 -21 -25 -13 -2 -23 -9 -23 -15 0 -7 -10 -18 -21 -26 -20 -12 -25 -10 -57
28 -19 23 -39 41 -44 41 -15 0 0 -53 18 -67 13 -9 5 -15 -41 -32 -84 -32 -132
-40 -220 -41 -271 -1 -503 176 -587 445 -28 91 -30 233 -4 320 19 65 66 169
72 162 2 -2 -7 -28 -20 -58 -98 -215 -65 -468 84 -649 75 -90 233 -176 293
-159 17 5 33 13 36 17 3 5 13 12 21 15 9 3 4 6 -12 6 -15 1 -29 5 -32 10 -3 5
45 8 112 7 99 -1 128 3 191 23 67 22 87 34 147 91 12 11 26 20 32 20 6 0 16 9
22 20 6 11 7 20 1 20 -5 0 -11 -7 -15 -15 -3 -8 -12 -15 -21 -15 -8 0 -15 -4
-15 -9 0 -21 -172 -90 -227 -91 -30 0 -10 18 25 24 36 5 123 47 148 70 7 6 28
22 46 35 100 73 169 257 148 396 -18 123 -47 180 -137 276 -63 67 -65 69 -28
48 44 -25 135 -112 135 -129 0 -5 5 -10 11 -10 6 0 -3 24 -20 53 -34 60 -31
73 24 102 30 16 30 15 73 -31 23 -25 57 -78 76 -117z m-763 125 c-98 -49 -174
-137 -200 -230 l-9 -30 39 2 c22 2 42 5 45 8 9 10 -8 37 -27 43 -26 9 -24 25
9 74 40 59 134 124 211 146 48 14 187 6 238 -13 114 -43 201 -133 243 -250 19
-52 22 -75 17 -137 -6 -70 -42 -174 -65 -189 -11 -6 -133 77 -179 122 -16 17
-43 32 -59 34 -20 2 -30 9 -32 23 -7 46 -13 65 -21 65 -5 0 -4 -14 2 -30 10
-25 9 -33 -3 -41 -8 -5 -23 -7 -32 -5 -10 2 -20 -3 -23 -13 -3 -10 -20 -28
-38 -41 -17 -13 -41 -35 -52 -49 -39 -50 -63 -71 -79 -71 -9 0 -21 -9 -28 -20
-7 -11 -20 -20 -28 -20 -42 -1 -39 -17 10 -70 27 -29 48 -55 45 -58 -8 -8 -74
28 -111 60 -108 95 -161 257 -129 396 17 73 31 107 58 136 9 11 17 25 17 30 0
6 16 24 35 39 19 15 34 32 32 38 -2 12 -1 12 83 52 73 35 100 34 31 -1z m783
-105 c18 -44 30 -83 23 -77 -8 8 -47 110 -42 110 3 0 11 -15 19 -33z m55 -181
c1 -42 -5 -29 -12 24 -4 30 -3 38 3 25 5 -11 9 -33 9 -49z m8 -148 c-2 -13 -4
-3 -4 22 0 25 2 35 4 23 2 -13 2 -33 0 -45z m-10 -90 c-3 -7 -5 -2 -5 12 0 14
2 19 5 13 2 -7 2 -19 0 -25z m-807 -239 c0 -5 -9 -9 -20 -9 -17 0 -19 2 -8 14
13 14 28 12 28 -5z m706 -254 c19 -29 11 -49 -15 -35 -21 11 -34 37 -25 51 9
15 23 10 40 -16z m84 -120 c7 -14 10 -28 6 -32 -11 -12 -41 12 -44 36 -5 29
21 27 38 -4z m118 -157 c28 -40 66 -94 84 -120 18 -25 65 -88 103 -140 117
-154 137 -186 133 -215 -3 -24 -15 -11 -93 101 -49 71 -117 165 -150 210 -133
180 -166 236 -136 236 4 0 30 -33 59 -72z m1789 -94 c8 -23 -96 -30 -342 -25
-262 7 -281 16 -55 29 190 11 393 9 397 -4z m303 -5 c0 -20 -3 -21 -102 -14
-57 4 -107 10 -113 14 -9 6 75 15 173 19 37 2 42 -1 42 -19z m-1570 -632 c0
-34 -22 -185 -32 -215 -10 -32 -12 -34 -47 -27 -54 10 -65 24 -43 61 9 17 37
68 62 112 43 78 60 98 60 69z m105 -555 c101 -155 240 -261 425 -322 108 -36
131 -57 59 -53 -101 5 -260 79 -368 171 -84 71 -181 215 -181 266 0 30 15 15
65 -62z m-550 43 c265 -36 274 -40 347 -148 87 -130 251 -265 402 -333 36 -16
66 -35 66 -42 0 -7 21 -57 46 -110 461 -977 507 -1832 131 -2438 -252 -405
-629 -653 -1107 -730 -161 -25 -453 -16 -618 20 -690 151 -1251 652 -1468
1312 -144 438 -150 858 -19 1259 177 537 610 946 1190 1122 152 46 325 79 560
106 105 13 304 5 470 -18z m1081 -682 c34 -73 107 -263 145 -377 68 -207 146
-544 136 -584 -3 -12 -5 -10 -6 5 0 12 -15 77 -32 145 -75 298 -121 433 -253
756 -25 62 -46 114 -46 117 0 2 7 2 15 -1 8 -3 26 -31 41 -61z m-3291 -1938
c98 -209 202 -377 329 -534 68 -85 221 -242 311 -320 62 -54 41 -52 -30 2
-267 203 -476 472 -609 784 -36 86 -68 183 -60 183 2 0 29 -52 59 -115z"/>
<path d="M12050 8115 c0 -5 5 -17 10 -25 5 -8 10 -10 10 -5 0 6 -5 17 -10 25
-5 8 -10 11 -10 5z"/>
<path d="M12092 7980 c0 -14 2 -19 5 -12 2 6 2 18 0 25 -3 6 -5 1 -5 -13z"/>
<path d="M12092 7865 c-1 -22 -11 -69 -22 -103 -22 -69 -25 -96 -10 -72 20 32
41 124 37 168 -3 46 -3 47 -5 7z"/>
<path d="M11211 7984 c0 -11 3 -14 6 -6 3 7 2 16 -1 19 -3 4 -6 -2 -5 -13z"/>
<path d="M17228 7380 c-32 -10 -88 -42 -88 -51 0 -28 105 -10 132 23 29 33 12
45 -44 28z"/>
<path d="M4310 6760 c0 -19 7 -20 160 -20 153 0 160 1 160 20 0 19 -7 20 -160
20 -153 0 -160 -1 -160 -20z"/>
<path d="M12980 6131 c0 -31 16 -66 73 -163 68 -114 167 -291 231 -415 19 -36
36 -55 57 -62 17 -6 29 -6 29 -1 0 26 -372 680 -386 680 -2 0 -4 -18 -4 -39z"/>
<path d="M17135 6042 c-30 -10 -196 -105 -191 -110 7 -6 192 86 206 103 7 8
11 15 9 14 -2 -1 -13 -4 -24 -7z"/>
<path d="M12980 5997 c0 -44 38 -182 66 -241 14 -30 42 -73 62 -96 44 -52 135
-125 139 -113 4 10 -120 235 -216 393 -43 71 -51 80 -51 57z"/>
<path d="M17475 5964 c6 -60 -9 -176 -36 -282 -21 -83 -25 -122 -10 -106 5 5
21 67 35 138 26 130 32 230 15 276 -6 18 -7 11 -4 -26z"/>
<path d="M2740 5625 l0 -235 45 0 45 0 0 235 0 235 -45 0 -45 0 0 -235z"/>
<path d="M3180 5625 l0 -235 45 0 45 0 0 94 c0 52 4 106 10 120 19 50 78 56
99 10 6 -14 11 -70 11 -124 l0 -100 45 0 45 0 0 125 c0 139 -10 173 -55 193
-14 7 -37 12 -51 12 -27 0 -84 -29 -84 -42 0 -4 -4 -8 -10 -8 -6 0 -10 38 -10
95 l0 95 -45 0 -45 0 0 -235z"/>
<path d="M4160 5625 l0 -235 50 0 50 0 0 108 c0 121 9 145 55 145 46 0 55 -24
55 -145 l0 -108 50 0 50 0 0 103 c-1 178 -22 222 -109 222 -38 0 -55 -5 -75
-24 l-26 -24 0 96 0 97 -50 0 -50 0 0 -235z"/>
<path d="M5220 5625 l0 -235 45 0 45 0 0 75 c0 41 3 75 8 75 4 0 28 -34 54
-75 l47 -75 56 0 c64 0 64 -6 -7 91 -26 37 -48 72 -48 78 0 6 23 40 50 75 28
35 50 66 50 70 0 3 -24 6 -54 6 l-55 0 -43 -70 c-24 -38 -46 -70 -50 -70 -5 0
-8 65 -8 145 l0 145 -45 0 -45 0 0 -235z"/>
<path d="M3904 5840 c-103 -24 -166 -113 -166 -233 0 -152 99 -239 253 -223
84 8 89 12 89 63 0 39 -2 44 -17 38 -10 -4 -44 -10 -75 -13 -43 -3 -64 0 -83
12 -87 57 -87 205 0 262 20 13 41 16 100 12 l75 -5 0 42 c0 41 -1 43 -37 49
-47 7 -99 6 -139 -4z"/>
<path d="M5901 5836 c-24 -8 -61 -32 -82 -52 -54 -53 -72 -105 -67 -198 3 -63
8 -81 33 -117 17 -23 47 -51 67 -62 48 -24 140 -33 196 -18 42 12 42 12 42 57
0 40 -2 45 -17 39 -10 -5 -45 -10 -78 -12 -51 -4 -64 -2 -89 18 -77 61 -73
200 8 251 25 16 44 19 104 15 l72 -4 0 38 c0 21 -5 41 -11 45 -23 14 -135 14
-178 0z"/>
<path d="M1540 5615 l0 -225 50 0 50 0 0 90 0 90 95 0 95 0 0 -90 0 -90 50 0
50 0 0 225 0 225 -50 0 -50 0 0 -90 0 -90 -95 0 -95 0 0 90 0 90 -50 0 -50 0
0 -225z"/>
<path d="M2995 5795 c-36 -11 -40 -15 -43 -48 -3 -34 -6 -37 -33 -37 -27 0
-29 -3 -29 -35 0 -32 2 -35 30 -35 l30 0 0 -95 c0 -52 5 -106 12 -120 13 -28
66 -49 113 -43 27 3 30 7 33 40 3 31 0 36 -15 32 -37 -9 -48 11 -52 101 l-3
85 36 0 c34 0 36 1 36 35 0 33 -2 35 -34 35 -35 0 -35 1 -38 48 l-3 48 -40
-11z"/>
<path d="M2100 5698 c-61 -31 -84 -74 -84 -155 0 -103 54 -158 157 -158 97 0
117 9 117 50 0 33 -1 34 -26 25 -14 -6 -45 -10 -69 -10 -35 0 -48 5 -64 26
-12 15 -21 31 -21 35 0 5 48 9 106 9 l107 0 -6 57 c-7 65 -29 100 -78 125 -46
24 -86 23 -139 -4z m120 -74 c16 -41 13 -44 -51 -44 -58 0 -60 1 -53 23 11 36
25 47 60 47 28 0 36 -5 44 -26z"/>
<path d="M2435 5707 c-35 -11 -40 -17 -43 -46 -3 -31 -2 -33 20 -26 13 4 46
10 75 12 45 4 53 2 63 -17 15 -28 5 -35 -60 -43 -95 -11 -140 -58 -126 -130 9
-50 39 -72 96 -72 37 0 54 6 74 24 26 24 26 24 26 3 0 -19 5 -22 46 -22 l46 0
-4 130 c-3 130 -3 130 -34 160 -25 25 -41 32 -85 35 -30 3 -72 -1 -94 -8z
m125 -192 c0 -50 -70 -86 -100 -50 -27 33 13 75 73 75 22 0 27 -4 27 -25z"/>
<path d="M4636 5710 c-92 -29 -133 -160 -81 -261 30 -57 128 -83 218 -58 32 8
37 14 37 39 l0 29 -69 -6 c-61 -5 -71 -3 -90 16 -43 43 -30 51 84 51 l106 0
-7 53 c-8 64 -26 102 -59 123 -30 20 -99 27 -139 14z m92 -72 c5 -7 13 -23 16
-35 7 -22 5 -23 -53 -23 -66 0 -73 8 -45 48 17 24 65 30 82 10z"/>
<path d="M4994 5709 c-42 -12 -90 -68 -104 -120 -18 -67 6 -141 60 -179 36
-25 123 -37 163 -21 22 9 27 16 27 46 0 33 -2 36 -22 28 -36 -12 -88 -6 -109
13 -25 23 -34 77 -18 115 17 42 69 64 112 50 16 -6 32 -11 33 -11 2 0 4 17 4
39 0 32 -4 40 -22 45 -32 8 -87 6 -124 -5z"/>
<path d="M6223 5708 c-41 -9 -43 -11 -43 -45 0 -30 3 -34 18 -28 9 4 40 10 67
12 39 4 54 1 64 -11 21 -25 6 -46 -31 -46 -115 0 -177 -75 -137 -163 26 -58
124 -62 166 -8 11 14 12 13 13 -6 0 -20 5 -23 45 -23 l45 0 0 120 c0 139 -11
173 -65 196 -38 16 -80 16 -142 2z m117 -196 c0 -37 -30 -64 -67 -60 -24 2
-28 8 -31 36 -4 35 17 50 71 51 23 1 27 -3 27 -27z"/>
<path d="M6658 5696 c-36 -24 -38 -24 -38 -6 0 17 -7 20 -50 20 l-50 0 0 -160
0 -160 50 0 50 0 0 110 c0 98 2 112 21 131 21 21 56 19 71 -5 4 -6 8 -62 8
-123 l0 -113 50 0 50 0 0 105 c0 99 2 107 25 130 29 30 39 31 65 5 18 -18 20
-33 20 -130 l0 -110 51 0 51 0 -4 130 c-3 111 -7 133 -24 157 -38 51 -120 55
-165 9 l-22 -23 -21 24 c-32 37 -91 41 -138 9z"/>
<path d="M7246 5695 c-35 -24 -36 -24 -36 -4 0 18 -5 20 -47 17 l-48 -3 -3
-232 -2 -233 50 0 50 0 0 90 0 89 35 -21 c94 -55 194 27 195 160 0 69 -21 117
-62 142 -44 27 -87 25 -132 -5z m82 -73 c19 -24 15 -116 -5 -140 -28 -31 -56
-35 -86 -11 -23 17 -27 28 -27 70 0 28 5 59 11 70 21 39 80 45 107 11z"/>
<path d="M17250 5045 c0 -28 99 -62 131 -44 42 22 -17 59 -92 59 -28 0 -39 -4
-39 -15z"/>
<path d="M3830 4825 l0 -115 55 0 c30 0 55 5 55 10 0 6 -20 10 -45 10 l-45 0
0 105 c0 63 -4 105 -10 105 -6 0 -10 -45 -10 -115z"/>
<path d="M3980 4925 c0 -8 5 -15 10 -15 6 0 10 7 10 15 0 8 -4 15 -10 15 -5 0
-10 -7 -10 -15z"/>
<path d="M4480 4825 l0 -115 55 0 c30 0 55 5 55 10 0 6 -20 10 -45 10 l-45 0
0 105 c0 63 -4 105 -10 105 -6 0 -10 -45 -10 -115z"/>
<path d="M3980 4790 c0 -47 4 -80 10 -80 6 0 10 33 10 80 0 47 -4 80 -10 80
-6 0 -10 -33 -10 -80z"/>
<path d="M4040 4863 c0 -22 57 -153 66 -153 7 0 16 12 22 28 5 15 19 51 31 80
14 36 17 52 9 50 -7 -3 -23 -33 -37 -68 l-24 -63 -25 66 c-13 37 -28 67 -33
67 -5 0 -9 -3 -9 -7z"/>
<path d="M4231 4853 c-12 -10 -24 -35 -27 -55 -5 -30 -2 -41 19 -62 29 -29 63
-33 93 -12 17 13 15 14 -22 9 -35 -4 -44 -2 -58 18 -9 13 -16 27 -16 31 0 5
27 8 61 8 l61 0 -6 28 c-13 51 -64 68 -105 35z m77 -25 c3 -15 -4 -18 -44 -18
-47 0 -47 0 -29 20 23 25 68 23 73 -2z"/>
<path d="M4645 4845 c-69 -68 22 -174 98 -115 21 16 27 30 27 58 0 43 -7 55
-37 71 -34 17 -62 13 -88 -14z m89 -11 c35 -34 10 -104 -36 -104 -30 0 -58 28
-58 58 0 52 59 81 94 46z"/>
<path d="M4820 4790 c0 -47 4 -80 10 -80 6 0 10 24 10 53 0 40 5 58 18 70 43
39 72 10 72 -72 0 -28 5 -51 10 -51 6 0 10 26 10 58 0 89 -35 124 -88 86 -20
-14 -22 -14 -22 0 0 9 -4 16 -10 16 -6 0 -10 -33 -10 -80z"/>
<path d="M5028 4860 c-9 -6 -21 -25 -28 -44 -14 -43 0 -82 36 -98 22 -10 31
-9 56 5 l30 17 -6 -27 c-10 -41 -34 -55 -81 -49 -38 6 -39 5 -20 -10 24 -18
81 -13 104 11 19 19 30 205 13 205 -6 0 -12 -5 -14 -11 -3 -9 -9 -9 -25 0 -26
13 -42 14 -65 1z m82 -42 c13 -25 13 -31 0 -55 -17 -31 -53 -41 -76 -23 -20
18 -18 86 4 99 27 17 55 8 72 -21z"/>
<path d="M4310 3920 c0 -19 7 -20 160 -20 153 0 160 1 160 20 0 19 -7 20 -160
20 -153 0 -160 -1 -160 -20z"/>
</g>
</svg>
